<svg xmlns="http://www.w3.org/2000/svg" xmlns:xlink="http://www.w3.org/1999/xlink">
    <defs>
        <style>
            .sprite { display: none; }

            .sprite:target { display: block; }
        </style>
    </defs>
	
    <g id="eye" class="sprite">
        <svg viewBox="0 0 24 24" fill="none" xmlns="http://www.w3.org/2000/svg">
            <path
                d="M9.75 12C9.75 10.7574 10.7574 9.75 12 9.75C13.2426 9.75 14.25 10.7574 14.25 12C14.25 13.2426 13.2426 14.25 12 14.25C10.7574 14.25 9.75 13.2426 9.75 12Z"
                fill="black"/>
            <path
                d="M2 12C2 13.6394 2.42496 14.1915 3.27489 15.2957C4.97196 17.5004 7.81811 20 12 20C16.1819 20 19.028 17.5004 20.7251 15.2957C21.575 14.1915 22 13.6394 22 12C22 10.3606 21.575 9.80853 20.7251 8.70433C19.028 6.49956 16.1819 4 12 4C7.81811 4 4.97196 6.49956 3.27489 8.70433C2.42496 9.80853 2 10.3606 2 12ZM12 8.25C9.92893 8.25 8.25 9.92893 8.25 12C8.25 14.0711 9.92893 15.75 12 15.75C14.0711 15.75 15.75 14.0711 15.75 12C15.75 9.92893 14.0711 8.25 12 8.25Z"
                fill-rule="evenodd" clip-rule="evenodd" fill="black"/>
        </svg>
    </g>
	
    <g id="eye-closed" class="sprite">
        <svg viewBox="0 0 24 24" fill="none" xmlns="http://www.w3.org/2000/svg">
            <path
                d="M2.68936 10.7046C2.52619 10.3238 2.08528 10.1475 1.70456 10.3106C1.32384 10.4738 1.14747 10.9147 1.31064 11.2954L2.68936 10.7046ZM15.5872 17.3287L15.3125 16.6308L15.3125 16.6308L15.5872 17.3287ZM22.6894 11.2954C22.8525 10.9147 22.6762 10.4738 22.2954 10.3106C21.9147 10.1475 21.4738 10.3238 21.3106 10.7046L22.6894 11.2954ZM19 15.1288L18.4867 14.582L18.4867 14.582L19 15.1288ZM12 17.25C8.77611 17.25 6.46133 15.6446 4.9246 13.9897C4.15645 13.1624 3.59325 12.3328 3.22259 11.7101C3.03769 11.3995 2.90187 11.1423 2.8134 10.9654C2.76919 10.877 2.73689 10.8087 2.71628 10.7641C2.70597 10.7418 2.69859 10.7254 2.69411 10.7153C2.69187 10.7103 2.69036 10.7068 2.68957 10.705C2.68917 10.7041 2.68896 10.7036 2.68892 10.7035C2.68891 10.7035 2.68893 10.7036 2.68901 10.7037C2.68904 10.7038 2.68913 10.704 2.68915 10.7041C2.68925 10.7043 2.68936 10.7046 2 11C1.31064 11.2954 1.31077 11.2958 1.31092 11.2961C1.31098 11.2962 1.31114 11.2966 1.31127 11.2969C1.31152 11.2975 1.31183 11.2982 1.31218 11.299C1.31287 11.3006 1.31376 11.3027 1.31483 11.3051C1.31698 11.31 1.31988 11.3166 1.32353 11.3248C1.33083 11.3412 1.34115 11.3642 1.35453 11.3931C1.38127 11.451 1.42026 11.5332 1.47176 11.6362C1.57469 11.8421 1.72794 12.1318 1.93366 12.4774C2.34425 13.1672 2.96855 14.0876 3.8254 15.0103C5.53867 16.8554 8.22389 18.75 12 18.75V17.25ZM15.3125 16.6308C14.3421 17.0128 13.2417 17.25 12 17.25V18.75C13.4382 18.75 14.7246 18.4742 15.8619 18.0266L15.3125 16.6308ZM22 11C21.3106 10.7046 21.3107 10.7044 21.3108 10.7043C21.3108 10.7042 21.3108 10.7041 21.3109 10.704C21.3109 10.7039 21.311 10.7038 21.311 10.7037C21.3111 10.7035 21.3111 10.7035 21.3111 10.7036C21.311 10.7038 21.3107 10.7045 21.3101 10.7058C21.309 10.7082 21.307 10.7127 21.3041 10.7192C21.2983 10.7322 21.2889 10.7531 21.2758 10.7812C21.2495 10.8376 21.2086 10.923 21.1526 11.0327C21.0406 11.2523 20.869 11.5683 20.6354 11.9432C20.1669 12.6952 19.4563 13.672 18.4867 14.582L19.5133 15.6757C20.6023 14.6535 21.3917 13.5659 21.9085 12.7365C22.1676 12.3207 22.36 11.9668 22.4889 11.7142C22.5533 11.5877 22.602 11.4864 22.6353 11.4151C22.6519 11.3794 22.6647 11.3512 22.6737 11.331C22.6782 11.321 22.6818 11.3129 22.6844 11.307C22.6857 11.304 22.6867 11.3015 22.6876 11.2996C22.688 11.2986 22.6883 11.2978 22.6886 11.2971C22.6888 11.2968 22.6889 11.2965 22.689 11.2962C22.6891 11.296 22.6892 11.2959 22.6892 11.2958C22.6893 11.2956 22.6894 11.2954 22 11ZM18.4867 14.582C17.6277 15.3882 16.5739 16.1343 15.3125 16.6308L15.8619 18.0266C17.3355 17.4466 18.5466 16.583 19.5133 15.6757L18.4867 14.582Z"
                fill="black"/>
            <path
                d="M12.75 18.0001C12.75 17.5859 12.4142 17.2501 12 17.2501C11.5858 17.2501 11.25 17.5859 11.25 18.0001H12.75ZM16.2158 16.9197C15.9899 16.5725 15.5253 16.4742 15.1781 16.7001C14.831 16.926 14.7326 17.3906 14.9586 17.7378L16.2158 16.9197ZM9.04145 17.7378C9.26736 17.3906 9.16904 16.926 8.82185 16.7001C8.47466 16.4742 8.01008 16.5725 7.78417 16.9197L9.04145 17.7378ZM6.37136 19.091C6.14545 19.4382 6.24377 19.9028 6.59096 20.1287C6.93815 20.3546 7.40273 20.2563 7.62864 19.9091L6.37136 19.091ZM19.5303 14.5986C19.2374 14.3057 18.7626 14.3057 18.4697 14.5986C18.1768 14.8915 18.1768 15.3663 18.4697 15.6592L19.5303 14.5986ZM19.9697 17.1592C20.2626 17.4521 20.7374 17.4521 21.0303 17.1592C21.3232 16.8663 21.3232 16.3915 21.0303 16.0986L19.9697 17.1592ZM11.25 20.5001C11.25 20.9143 11.5858 21.2501 12 21.2501C12.4142 21.2501 12.75 20.9143 12.75 20.5001H11.25ZM16.3714 19.9091C16.5973 20.2563 17.0619 20.3546 17.409 20.1287C17.7562 19.9028 17.8545 19.4382 17.6286 19.091L16.3714 19.9091ZM5.53033 15.6592C5.82322 15.3663 5.82322 14.8915 5.53033 14.5986C5.23744 14.3057 4.76256 14.3057 4.46967 14.5986L5.53033 15.6592ZM2.96967 16.0986C2.67678 16.3915 2.67678 16.8663 2.96967 17.1592C3.26256 17.4521 3.73744 17.4521 4.03033 17.1592L2.96967 16.0986ZM7.78417 16.9197L6.37136 19.091L7.62864 19.9091L9.04145 17.7378L7.78417 16.9197ZM18.4697 15.6592L19.9697 17.1592L21.0303 16.0986L19.5303 14.5986L18.4697 15.6592ZM11.25 18.0001V20.5001H12.75V18.0001H11.25ZM14.9586 17.7378L16.3714 19.9091L17.6286 19.091L16.2158 16.9197L14.9586 17.7378ZM4.46967 14.5986L2.96967 16.0986L4.03033 17.1592L5.53033 15.6592L4.46967 14.5986Z"
                fill="black"/>
        </svg>
    </g>

	<g id="checked" class="sprite">
        <svg viewBox="0 0 20 20" fill="none" xmlns="http://www.w3.org/2000/svg">
            <path
                d="M5 9.79997L8.30371 13.5L15 6"
                stroke="black" stroke-width="2" stroke-linecap="round" stroke-linejoin="round"/>
        </svg>
	</g>
</svg>
